<?xml version="1.0" encoding="utf-8"?>
<!-- Generator: Adobe Illustrator 23.0.2, SVG Export Plug-In . SVG Version: 6.00 Build 0)  -->
<svg version="1.1" id="Layer_1" xmlns="http://www.w3.org/2000/svg" xmlns:xlink="http://www.w3.org/1999/xlink" x="0px" y="0px"
	 width="83.5px" height="43.8px" viewBox="0 0 83.5 43.8" style="enable-background:new 0 0 83.5 43.8;" xml:space="preserve">
<g>
	<g>
		<path d="M80.9,7.8c-1.6-2.5-3.9-4.4-7-5.8c-3-1.4-6.6-2-10.5-2H28.1v18.5L12.6,0H0v43.8h15.1V25.3l15.5,18.5h11.7l0,0h15.5V33.4
			h5.7c3.9,0,7.5-0.7,10.5-2c3-1.3,5.3-3.3,7-5.8c1.6-2.5,2.5-5.5,2.5-8.9C83.4,13.2,82.5,10.2,80.9,7.8z M80.2,25
			c-1.5,2.3-3.8,4.2-6.6,5.4c-2.9,1.3-6.3,2-10.1,2h-6.7v10.5H43.3V1h20.1c3.8,0,7.2,0.7,10.1,2c2.9,1.3,5.1,3.1,6.6,5.4v0
			c1.5,2.2,2.3,5.1,2.4,8.3C82.5,19.9,81.7,22.7,80.2,25z"/>
	</g>
</g>
<g>
	<g>
		<path d="M68.9,16.6c0,0.7-0.1,1.3-0.3,1.8c0,0,0,0,0,0c-0.1,0.2-0.1,0.4-0.2,0.5c-0.1,0.2-0.2,0.3-0.2,0.5
			c-0.1,0.2-0.2,0.3-0.2,0.4c-0.1,0.1-0.2,0.2-0.3,0.4c0,0-0.1,0.1-0.1,0.1c-0.1,0.1-0.2,0.2-0.3,0.3c0,0-0.1,0.1-0.1,0.1
			c-1.1,1-2.6,1.4-4.7,1.4h-5.8v-11h0.1v-0.1h5.8c2.1,0,3.6,0.4,4.7,1.4C68.3,13.5,68.9,14.9,68.9,16.6z"/>
	</g>
</g>
</svg>
