<svg id="Layer_1" data-name="Layer 1" xmlns="http://www.w3.org/2000/svg" width="180" height="180" viewBox="0 0 180 180">
  <title>1Artboard 3</title>
  <path d="M179.9-.1H.1A129.75,129.75,0,0,0,4.48,37.07C9.22,53.22,16.26,64.53,24.23,76.56c7.59,11.5,8.49,13.8,11,25.56H52.75C57.36,113.5,63.26,122.73,70.3,130h39.4c7-7.27,12.94-16.5,17.55-27.88H144.8c2.48-11.76,3.38-14.06,11-25.56,8-12,15-23.34,19.75-39.49A129.75,129.75,0,0,0,179.9-.1ZM19.84,30.1a47.06,47.06,0,0,1,0-11.62H39.59c-.25,18.57,0,37.17,4.38,53.44C34.43,60.16,22.45,47.5,19.84,30.1ZM100.1,90H82.55V43.94l-16,4V32.11L97.09,26h3Zm60.06-59.9C157.55,47.5,145.57,60.16,136,71.92c4.38-16.27,4.63-34.87,4.38-53.44h19.75A47.06,47.06,0,0,1,160.16,30.1Z"/>
  <polygon points="157 161.54 157 180 23 180 23 161.54 43.97 161.54 43.97 143.08 136.03 143.08 136.03 161.54 157 161.54"/>
</svg>
