<svg id="Layer_1" data-name="Layer 1" xmlns="http://www.w3.org/2000/svg" width="180" height="180" viewBox="0 0 180 180">
  <defs>
    <style>
      .cls-1 {
        fill: #f1c40f;
      }
    </style>
  </defs>
  <title>1Artboard 2</title>
  <path class="cls-1" d="M179.9-.1H.1A129.75,129.75,0,0,0,4.48,37.07C9.22,53.22,16.26,64.53,24.23,76.56c7.59,11.5,8.49,13.8,11,25.56H52.75C57.36,113.5,63.26,122.73,70.3,130h39.4c7-7.27,12.94-16.5,17.55-27.88H144.8c2.48-11.76,3.38-14.06,11-25.56,8-12,15-23.34,19.75-39.49A129.75,129.75,0,0,0,179.9-.1ZM19.84,30.1a47.06,47.06,0,0,1,0-11.62H39.59c-.25,18.57,0,37.17,4.38,53.44C34.43,60.16,22.45,47.5,19.84,30.1ZM114.7,90H65.55V79C80.5,67.29,96,57.91,96,48.62c0-4.13-2.4-7.2-7-7.2-3.64,0-6.13,2.21-6.13,5.56a2.87,2.87,0,0,0,.29,1.44L66,51.77a15.45,15.45,0,0,1-1-5.56C65.07,34.43,74.65,26,89.69,26c14.57,0,24.44,9,24.44,22.33,0,11.68-9.87,19.83-18,25.38a23,23,0,0,1-3.55,2l.2.39a32.78,32.78,0,0,1,4.41-.19H114.7Zm45.46-59.9C157.55,47.5,145.57,60.16,136,71.92c4.38-16.27,4.63-34.87,4.38-53.44h19.75A47.06,47.06,0,0,1,160.16,30.1Z"/>
  <polygon class="cls-1" points="157 161.54 157 180 23 180 23 161.54 43.97 161.54 43.97 143.08 136.03 143.08 136.03 161.54 157 161.54"/>
</svg>
