<svg xmlns="http://www.w3.org/2000/svg" width="47.325" height="50" viewBox="0 0 47.325 50">
  <g id="Group_58" data-name="Group 58" transform="translate(-626 -856)">
    <path id="Path_107" data-name="Path 107" d="M-1145.147,308.878c0-7.359.036-14.719-.024-22.077-.016-1.925.6-2.833,2.652-2.81,6.8.076,13.6-.093,20.394.1,6.565.182,12.538,2.152,17.348,6.894,5.486,5.408,7.339,12.135,6.857,19.587-.54,8.333-3.648,15.365-11.007,19.969a21.384,21.384,0,0,1-11.134,3.386c-7.567.106-15.138.02-22.707.068-1.875.012-2.405-.906-2.4-2.615C-1145.123,323.876-1145.146,316.377-1145.147,308.878Zm29.379,11.2a15.968,15.968,0,0,0-5.541-9.837,4.171,4.171,0,0,0-4.737-.378,17.723,17.723,0,0,0-6.8,5.814c-1.083,1.484-2.6,3.122-1.533,5.12s3.245,2.067,5.224,1.856c2.891-.308,5.555-.3,8.262,1.281C-1118.5,325.336-1115.724,323.377-1115.768,320.081Zm-13.876-20.885a8.028,8.028,0,0,0,1.343,4.7c1.386,1.977,3.371,1.989,4.827.079,1.858-2.435,1.627-7.131-.46-9.371a2.522,2.522,0,0,0-4-.055A6.987,6.987,0,0,0-1129.644,299.2Zm17.127.229c-.091-1.49-.338-2.818-1.7-3.5a2.963,2.963,0,0,0-3.33.574,8.11,8.11,0,0,0-3.241,7.365c.269,2.8,2.576,3.811,4.844,2.149A8.7,8.7,0,0,0-1112.517,299.425Zm-4.121,13.529c-.026,2.5,1.662,3.923,3.883,3.264a7.054,7.054,0,0,0,4.408-6.932,2.847,2.847,0,0,0-4.147-2.407A7.119,7.119,0,0,0-1116.638,312.954Zm-20.686-7.265a6.5,6.5,0,0,0,2.14,5.046c1.777,1.579,3.8,1.2,4.817-.9a6.952,6.952,0,0,0-2.11-7.926,2.766,2.766,0,0,0-4.275.943A5.146,5.146,0,0,0-1137.324,305.689Z" transform="translate(1771.171 572.009)" fill="#ffeb3b"/>
  </g>
</svg>
