<svg xmlns="http://www.w3.org/2000/svg" width="37.91" height="49.993" viewBox="0 0 37.91 49.993">
  <g id="Group_50" data-name="Group 50" transform="translate(-1635 -777)">
    <g id="Group_34" data-name="Group 34" transform="translate(1410.913 934.902)">
      <path id="Path_88" data-name="Path 88" d="M224.087-129.613a4.014,4.014,0,0,1,.594-1.331,3.955,3.955,0,0,1,.264-.3c3.443-3.446,6.9-6.881,10.327-10.341a3.231,3.231,0,0,1,3.446-.9,4.623,4.623,0,0,1,1.12.356.785.785,0,0,1,.264.907.708.708,0,0,1-.821.467,4.106,4.106,0,0,1-.864-.207,1.871,1.871,0,0,0-2.133.526q-4.446,4.464-8.906,8.912c-.4.4-.79.794-1.189,1.187a1.758,1.758,0,0,0-.468,1.852c.513,1.861,1.015,3.725,1.518,5.589q.7,2.591,1.386,5.183c.3,1.134.585,2.274.915,3.4a1.665,1.665,0,0,0,1.319,1.089q3.513.94,7.029,1.871c2.321.62,4.638,1.256,6.963,1.859a1.531,1.531,0,0,0,1.561-.4q5.61-5.628,11.234-11.24c.479-.479.951-.508,1.336-.086a.731.731,0,0,1,0,.964c-.052.059-.11.112-.165.167q-5.334,5.334-10.663,10.67a4.691,4.691,0,0,1-2.23,1.517h-1.276c-.374-.112-.744-.233-1.12-.333-1.97-.526-3.942-1.045-5.913-1.57-2.489-.664-4.983-1.312-7.463-2.007a2.848,2.848,0,0,1-2.031-1.883c-.333-1.009-.6-2.041-.875-3.067-.336-1.238-.653-2.481-.985-3.72q-.747-2.78-1.5-5.556-.338-1.247-.672-2.493Z" fill="#f9c80e"/>
      <path id="Path_89" data-name="Path 89" d="M261.582-157.9a.854.854,0,0,1,.415.73c0,.384-.125.619-.641.791a.767.767,0,0,1-.79-.409.685.685,0,0,1,.148-.948c.061-.059.13-.11.2-.164Z" fill="#f9c80e"/>
      <path id="Path_90" data-name="Path 90" d="M232.735-119.134a.67.67,0,0,1-.721-.425.715.715,0,0,1,.088-.777,9.7,9.7,0,0,1,1.1-1.146c.686-.7,1.41-1.361,2.1-2.052,1.73-1.72,3.46-3.441,5.172-5.179a.814.814,0,0,1,1.376.231.843.843,0,0,1-.274.895q-2.5,2.5-5.011,5.008c-1.093,1.086-2.2,2.157-3.3,3.239A.6.6,0,0,1,232.735-119.134Z" fill="#f9c80e"/>
      <path id="Path_91" data-name="Path 91" d="M249.873-136.326a.672.672,0,0,1-.2.648q-2.59,2.583-5.177,5.171a.785.785,0,0,1-1.375-.336.722.722,0,0,1,.226-.725q2.592-2.607,5.2-5.2a.819.819,0,0,1,1.284.134C249.916-136.5,249.857-136.371,249.873-136.326Z" fill="#f9c80e"/>
      <path id="Path_92" data-name="Path 92" d="M244.319-140.581c-.079-.313.15-.5.328-.679q2.435-2.459,4.891-4.9a.809.809,0,0,1,.985-.244.748.748,0,0,1,.208,1.264q-2.088,2.092-4.181,4.181c-.308.309-.61.625-.929.924a.7.7,0,0,1-.805.218A.675.675,0,0,1,244.319-140.581Z" fill="#f9c80e"/>
      <path id="Path_93" data-name="Path 93" d="M241.683-136.469a.67.67,0,0,1-.25.634q-2.51,2.5-5.013,5.009a.753.753,0,0,1-1.154.062.79.79,0,0,1,.054-1.177c.44-.447.886-.888,1.329-1.331q1.746-1.746,3.493-3.49a3.523,3.523,0,0,1,.383-.315.659.659,0,0,1,.749-.059C241.524-136.993,241.777-136.815,241.683-136.469Z" fill="#f9c80e"/>
      <path id="Path_94" data-name="Path 94" d="M242.969-122.644c-.057-.276.124-.474.314-.664q1.789-1.791,3.579-3.582c.179-.181.328-.39.509-.569a.786.786,0,0,1,1.174-.038.78.78,0,0,1-.067,1.146c-1.355,1.439-2.763,2.825-4.16,4.222a.732.732,0,0,1-.825.249A.672.672,0,0,1,242.969-122.644Z" fill="#f9c80e"/>
      <path id="Path_95" data-name="Path 95" d="M249.082-118.4a.628.628,0,0,1-.228.548c-1.008,1.043-2,2.107-3.026,3.129a5.264,5.264,0,0,1-.969.94.7.7,0,0,1-1-.122.726.726,0,0,1-.016-1.02.951.951,0,0,1,.07-.072q1.948-1.983,3.9-3.968a.686.686,0,0,1,.815-.179A.684.684,0,0,1,249.082-118.4Z" fill="#f9c80e"/>
      <path id="Path_96" data-name="Path 96" d="M237.363-115.3a.727.727,0,0,1-.754-.456.752.752,0,0,1,.155-.842c.776-.824,1.581-1.62,2.364-2.436.277-.288.54-.592.822-.876.435-.435.932-.505,1.251-.139.339.39.338.795-.13,1.291-1.032,1.1-2.15,2.106-3.167,3.217C237.766-115.389,237.57-115.225,237.363-115.3Z" fill="#f9c80e"/>
      <path id="Path_97" data-name="Path 97" d="M250.23-121.094a.643.643,0,0,1,.225-.589c.717-.708,1.426-1.424,2.141-2.134a.782.782,0,0,1,1.048-.154.739.739,0,0,1,.172,1.145q-1.14,1.162-2.3,2.3a.668.668,0,0,1-.78.2A.685.685,0,0,1,250.23-121.094Z" fill="#f9c80e"/>
      <path id="Path_98" data-name="Path 98" d="M251.97-138.284a.68.68,0,0,1-.752-.46.751.751,0,0,1,.16-.856q1.089-1.093,2.182-2.182a.832.832,0,0,1,.884-.231.708.708,0,0,1,.509.623.724.724,0,0,1-.2.625c-.764.769-1.533,1.534-2.3,2.3A.542.542,0,0,1,251.97-138.284Z" fill="#f9c80e"/>
      <path id="Path_99" data-name="Path 99" d="M255.21-151.719a.7.7,0,0,1,.744.455.782.782,0,0,1-.177.88c-.693.7-1.385,1.393-2.086,2.082a.772.772,0,0,1-1.352-.33.644.644,0,0,1,.165-.639c.7-.817,1.5-1.54,2.255-2.309A.512.512,0,0,1,255.21-151.719Z" fill="#f9c80e"/>
      <path id="Path_100" data-name="Path 100" d="M233.5-128.246a.814.814,0,0,1-.226.572c-.677.667-1.343,1.346-2.02,2.013a.782.782,0,0,1-1.368-.356.812.812,0,0,1,.286-.77q.946-.977,1.922-1.922a.777.777,0,0,1,.927-.225A.776.776,0,0,1,233.5-128.246Z" fill="#f9c80e"/>
      <path id="Path_101" data-name="Path 101" d="M251.209-129.346a.685.685,0,0,1-.724-.442.738.738,0,0,1,.15-.861q1-1.041,2.037-2.041a.814.814,0,0,1,1.361.4.679.679,0,0,1-.215.66c-.694.713-1.4,1.41-2.107,2.115A.572.572,0,0,1,251.209-129.346Z" fill="#f9c80e"/>
      <path id="Path_102" data-name="Path 102" d="M256.608-126.112a.878.878,0,0,1-.791.8.868.868,0,0,1-.811-.809.873.873,0,0,1,.82-.794A.865.865,0,0,1,256.608-126.112Z" fill="#f9c80e"/>
      <path id="Path_103" data-name="Path 103" d="M258.894-154.072c.081.421-.317.757-.741.79a.867.867,0,0,1-.8-.777.893.893,0,0,1,.807-.818A.748.748,0,0,1,258.894-154.072Z" fill="#f9c80e"/>
      <path id="Path_104" data-name="Path 104" d="M257.08-135.2a.845.845,0,0,1-.757.813.817.817,0,0,1-.789-.8.707.707,0,0,1,.75-.744A.715.715,0,0,1,257.08-135.2Z" fill="#f9c80e"/>
      <path id="Path_105" data-name="Path 105" d="M260.383-140.1a.791.791,0,0,1,.792.79.854.854,0,0,1-.821.754.8.8,0,0,1-.778-.782A.833.833,0,0,1,260.383-140.1Z" fill="#f9c80e"/>
      <path id="Path_106" data-name="Path 106" d="M257.146-143.522c-.51,0-.733-.226-.74-.721a.746.746,0,0,1,.734-.808.818.818,0,0,1,.813.8A.749.749,0,0,1,257.146-143.522Z" fill="#f9c80e"/>
    </g>
  </g>
</svg>
