<svg id="Layer_1" data-name="Layer 1" xmlns="http://www.w3.org/2000/svg" width="387.22" height="74.16" viewBox="0 0 387.22 74.16"><defs><style>.cls-1{fill:#29ced2;}</style></defs><path class="cls-1" d="M106.21,15.14c7.33,0,11.53,4.7,11.53,14.54,0,8.84-4.26,14-11.47,14h-2.82V59H96.36V15.14Zm-.76,21.94c3.51,0,5.14-2.19,5.21-7.4,0-5-1.63-7.64-5.21-7.64h-2l.06,15Z"/><path class="cls-1" d="M121.06,15.14h7.08v37h11.72V59h-18.8Z"/><path class="cls-1" d="M149.77,50.06l-1.13,9h-7l6.45-43.88h11.16L165.69,59h-7.34l-1.12-9Zm5.07-19.18-1.25-9.66h-.19l-1.31,9.53-1.51,12.6h5.83Z"/><path class="cls-1" d="M175.59,31.5h-.19c0,.06.06,5.39.06,10.41V59h-6.64V15.14h7.4l9.84,28.77h.19c0-.06-.07-4.76-.07-10.65V15.14h6.65V59h-7.46Z"/><path class="cls-1" d="M197.59,15.14H217V22H204.67V32.82h9.53v7h-9.53V52.12h12.54V59H197.59Z"/><path class="cls-1" d="M234.07,22V59H227V22h-7.4v-6.9h21.87V22Z"/><path class="cls-1" d="M261.46,31.5h-.19c0,.06.06,5.39.06,10.41V59h-6.64V15.14h7.39l9.85,28.77h.18c0-.06-.06-4.76-.06-10.65V15.14h6.65V59h-7.46Z"/><path class="cls-1" d="M290,50.06l-1.13,9h-7l6.45-43.88h11.16L305.9,59h-7.34l-1.12-9Zm5.07-19.18-1.25-9.66h-.19l-1.31,9.53-1.51,12.6h5.83Z"/><path class="cls-1" d="M330.84,47.36c-.81,6.46-2.38,12.41-11.41,12.41-7.64,0-12.09-4.76-12.09-22.81s4.51-22.57,12.41-22.57c8.21,0,10.72,4.95,11.09,12.22l-6.7,1.82c-.19-4.45-1.32-7.15-4.58-7.15-3.76,0-4.83,3.52-4.83,15.49,0,13,1.26,16.11,4.89,16.11,3,0,4-2.51,4.52-7.34Z"/><path class="cls-1" d="M350,40.15h-8.21V59h-7.09V15.14h7.09V32.69H350V15.14h7.14V59H350Z"/><path class="cls-1" d="M373.27,14.39c8.47,0,12.54,4.95,12.54,22.75,0,17.55-4,22.63-12.54,22.63S360.74,54.88,360.74,37C360.74,19.4,364.69,14.39,373.27,14.39Zm0,38.49c4,0,5.15-3,5.15-15.67,0-12.85-1.13-15.93-5.15-15.93s-5.14,3.14-5.14,15.68C368.13,49.68,369.26,52.88,373.27,52.88Z"/><path class="cls-1" d="M51.69,51.36A132.55,132.55,0,0,1,30.32,68.9,32.63,32.63,0,0,0,69.23,30,132.45,132.45,0,0,1,51.69,51.36Z"/><path class="cls-1" d="M9.84,54.47l.45.68,0,0a.43.43,0,0,0,0,.07l.45.65.14.2.45.6.45.59.1.12v0l.57.69.45.52.22.25.54.58s0,0,0,0c.19.21.4.41.6.62l.62.61,0,0,.56.52.25.22,0,0,2.7-1c7-2.51,16.21-9.09,24.72-17.61s15.1-17.76,17.61-24.72l1-2.7,0,0,0,0-.16-.18a.08.08,0,0,1,0,0c-.15-.16-.29-.32-.44-.47L60.41,14l-.57-.56,0,0-.57-.53h0c-.25-.22-.51-.45-.77-.66s-.42-.36-.64-.54l-.1-.08-.54-.42L57,11l-.66-.49-.56-.38,0,0-.28-.18s0,0-.06,0c-.18-.13-.37-.25-.56-.37a32.56,32.56,0,0,0-17.39-5A32.6,32.6,0,0,0,7.34,49.66,32.23,32.23,0,0,0,9.84,54.47Z"/><path class="cls-1" d="M67.48,24.51c.34-.58.66-1.15,1-1.71q.83-1.5,1.53-2.94c3.77-7.78,4.61-14,1.64-17S62.49.74,54.77,4.45c.8.43,1.59.89,2.36,1.37a35.24,35.24,0,0,1,3.46,2.49,6.2,6.2,0,0,1,3.52.89,5,5,0,0,1,.56.45l.09.09A4.8,4.8,0,0,1,66,12.3a8.05,8.05,0,0,1,.15,1.6A18.06,18.06,0,0,1,65,19.69C62.37,27,55.66,36.72,46.36,46S27.29,62,20,64.65a18,18,0,0,1-5.78,1.21,8.35,8.35,0,0,1-1.62-.14,4.85,4.85,0,0,1-2.55-1.29L10,64.34a4.61,4.61,0,0,1-.44-.55,6.16,6.16,0,0,1-.9-3.53A34.68,34.68,0,0,1,6.16,56.8q-.74-1.15-1.38-2.37C1.07,62.15.25,68.34,3.2,71.29s9.21,2.12,17-1.64c1-.46,1.93-1,2.93-1.52.56-.3,1.14-.63,1.72-1A123.25,123.25,0,0,0,48.61,48.28,122.74,122.74,0,0,0,67.48,24.51Z"/></svg>