<svg id="Layer_1" xmlns="http://www.w3.org/2000/svg" width="64" height="64" viewBox="0 0 64 64">
  <defs>
    <style>
      .cls-1 {
        fill: #53cdc2;
      }
    </style>
  </defs>
  <g>
    <path class="cls-1" d="M51.19,38a21.93,21.93,0,0,1-31.87,13A123.39,123.39,0,0,0,51.19,38Z"/>
    <path class="cls-1" d="M59.94,23.25c-2.37-2.48-9.79-1.26-10.21-1a20.07,20.07,0,0,0-1.14-2h0C34.8-1.39.89,14.78,9.35,38.94c-.77.22-9.11,6.44-5,9.91C12.48,55.84,68.39,32.14,59.94,23.25ZM6.1,46.74c-1-.8,3.29-4.44,4.3-5.21a20.63,20.63,0,0,0,2,3.31c11.45-1.47,29.8-9,39.41-16a22.5,22.5,0,0,0-1-4c1.47-.21,6.13-.73,7.11.37C62.59,29.81,12.52,52.39,6.1,46.74Z"/>
  </g>
</svg>
