<svg width="200" height="36" viewBox="0 0 200 36" fill="none" xmlns="http://www.w3.org/2000/svg">
<path d="M54.5263 6.91479C58.34 6.91479 60.5253 9.22206 60.5253 14.0526C60.5253 18.3922 58.3088 20.9253 54.5575 20.9253H53.0903V28.446H49.4014V6.91479H54.5263ZM54.1308 17.6853C55.9571 17.6853 56.8052 16.6102 56.8416 14.0526C56.8416 11.598 55.9935 10.3021 54.1308 10.3021H53.0903L53.1215 17.6656L54.1308 17.6853Z" fill="white"/>
<path d="M62.252 6.91479H65.9356V25.0783H72.0335V28.446H62.252V6.91479Z" fill="white"/>
<path d="M77.1899 24.0572L76.602 28.4753H72.96L76.3159 6.93433H82.1223L85.473 28.4459H81.6541L81.0713 24.0277L77.1899 24.0572ZM79.8278 14.6416L79.1775 9.8994H79.0786L78.397 14.5777L77.6114 20.7632H80.6447L79.8278 14.6416Z" fill="white"/>
<path d="M90.6239 14.946H90.5251C90.5251 14.9755 90.5563 17.592 90.5563 20.0564V28.446H87.1016V6.91479H90.9517L96.0714 21.0382H96.1703C96.1703 21.0087 96.1339 18.7015 96.1339 15.81V6.91479H99.5938V28.446H95.7124L90.6239 14.946Z" fill="white"/>
<path d="M102.07 6.91479H112.169V10.2824H105.754V15.594H110.712V19.0304H105.754V25.0685H112.278V28.446H102.07V6.91479Z" fill="white"/>
<path d="M121.05 10.2823V28.4458H117.372V10.2823H113.521V6.89502H124.9V10.2823H121.05Z" fill="white"/>
<path d="M135.302 14.946H135.203C135.203 14.9755 135.234 17.592 135.234 20.0564V28.446H131.779V6.91479H135.624L140.749 21.0382H140.843C140.843 21.0087 140.812 18.7015 140.812 15.81V6.91479H144.272V28.446H140.39L135.302 14.946Z" fill="white"/>
<path d="M150.151 24.0572L149.563 28.4753H145.921L149.277 6.93433H155.083L158.424 28.4459H154.605L154.022 24.0277L150.151 24.0572ZM152.789 14.6416L152.138 9.8994H152.04L151.358 14.5777L150.572 20.7632H153.606L152.789 14.6416Z" fill="white"/>
<path d="M171.399 22.7318C170.977 25.9031 170.16 28.824 165.462 28.824C161.487 28.824 159.172 26.4873 159.172 17.6264C159.172 8.76553 161.518 6.54663 165.629 6.54663C169.9 6.54663 171.206 8.97662 171.399 12.5455L167.913 13.439C167.814 11.2544 167.226 9.92898 165.53 9.92898C163.574 9.92898 163.017 11.657 163.017 17.5331C163.017 23.9149 163.672 25.4416 165.561 25.4416C167.122 25.4416 167.642 24.2095 167.913 21.8384L171.399 22.7318Z" fill="white"/>
<path d="M181.369 19.1924H177.097V28.446H173.408V6.91479H177.097V15.5302H181.369V6.91479H185.084V28.446H181.369V19.1924Z" fill="white"/>
<path d="M193.475 6.54663C197.882 6.54663 200 8.97662 200 17.7148C200 26.3302 197.919 28.824 193.475 28.824C189.032 28.824 186.956 26.4235 186.956 17.646C186.956 9.00607 189.011 6.54663 193.475 6.54663ZM193.475 25.4416C195.557 25.4416 196.155 23.9689 196.155 17.7491C196.155 11.441 195.567 9.92898 193.475 9.92898C191.384 9.92898 190.801 11.4704 190.801 17.6264C190.801 23.8707 191.389 25.4416 193.475 25.4416Z" fill="white"/>
<path d="M26.1597 24.6955C22.7817 27.9235 19.0552 30.8094 15.041 33.306C17.8266 33.8875 20.7227 33.7972 23.4616 33.0436C26.2004 32.2899 28.6939 30.8972 30.7115 28.994C32.7291 27.0908 34.2059 24.7386 35.0054 22.1546C35.8048 19.5706 35.9012 16.8382 35.2857 14.2097C32.6396 17.9957 29.5809 21.5101 26.1597 24.6955Z" fill="white"/>
<path d="M4.38483 26.2221L4.61896 26.5559C4.61797 26.5673 4.61797 26.5788 4.61896 26.5902L4.8531 26.9093L4.92594 27.0075L5.16007 27.3021L5.3942 27.5917L5.44623 27.6506L5.7428 27.9893L5.97693 28.2446L6.0914 28.3673L6.37235 28.652C6.47121 28.7551 6.58047 28.8533 6.68453 28.9564L7.00711 29.2559L7.29848 29.5111L7.42855 29.6191L8.83334 29.1282C12.4754 27.8961 17.2673 24.6659 21.695 20.4834C26.1227 16.3008 29.5514 11.7649 30.8574 8.34815L31.3777 7.02271L31.2944 6.93434C31.2164 6.8558 31.1435 6.77725 31.0655 6.70362L30.6961 6.35507L30.3995 6.08017L30.103 5.81998C29.9729 5.71199 29.8376 5.59908 29.7023 5.49599C29.567 5.3929 29.4838 5.31926 29.3693 5.2309L29.3173 5.19162L29.0364 4.98544L28.9219 4.88235L28.5785 4.64181L28.2871 4.45526L28.1414 4.3669C28.1414 4.3669 28.1414 4.3669 28.1102 4.3669C28.0166 4.30308 27.9177 4.24417 27.8189 4.18527C25.1093 2.57694 21.9721 1.7259 18.771 1.73073C15.9799 1.72803 13.2313 2.37522 10.7689 3.61489C8.30644 4.85457 6.20629 6.64842 4.65466 8.83737C3.10303 11.0263 2.14788 13.5427 1.87391 16.1634C1.59994 18.784 2.01563 21.428 3.0841 23.8608C3.44663 24.681 3.88174 25.4708 4.38483 26.2221Z" fill="white"/>
<path d="M34.3748 11.5146C34.5517 11.2298 34.7181 10.95 34.895 10.6751C35.1829 10.1842 35.4483 9.70311 35.6911 9.23184C37.6526 5.41259 38.0896 2.35915 36.5444 0.886425C34.9991 -0.586296 31.7785 -0.154298 27.7618 1.66697C28.178 1.87806 28.5891 2.10387 28.9897 2.33951C29.6154 2.71231 30.2165 3.12051 30.7899 3.56187C31.4329 3.53181 32.0708 3.68397 32.6214 3.99877C32.724 4.06572 32.8213 4.13955 32.9127 4.21968L32.9596 4.26386C33.3042 4.61165 33.5292 5.0498 33.6047 5.52059C33.6584 5.77929 33.6846 6.04242 33.6828 6.30604C33.6499 7.27804 33.4477 8.23831 33.0844 9.14839C31.716 12.7369 28.2249 17.5085 23.3861 22.0641C18.5474 26.6198 13.4641 29.9187 9.6712 31.2196C8.71026 31.5724 7.69415 31.7731 6.6639 31.8136C6.38124 31.8166 6.09894 31.7936 5.82102 31.7448C5.3214 31.6643 4.85908 31.4436 4.49427 31.1116L4.46826 31.0674C4.38476 30.983 4.30823 30.8928 4.23933 30.7974C3.90164 30.2775 3.73842 29.6734 3.77106 29.0645C3.30093 28.524 2.86653 27.9568 2.47033 27.3659C2.21365 26.9896 1.97432 26.6018 1.75232 26.2025C-0.177967 29.9923 -0.604608 33.031 0.930259 34.4792C2.46513 35.9274 5.72217 35.5199 9.77526 33.6741C10.2955 33.4483 10.7794 33.1832 11.2997 32.9279C11.5911 32.7806 11.8929 32.6186 12.1946 32.437C16.7034 29.8444 20.8556 26.7364 24.5568 23.1834C28.3285 19.692 31.6263 15.7724 34.3748 11.5146Z" fill="white"/>
</svg>
